<?xml version="1.0" encoding="utf-8"?>
<!-- Generator: Adobe Illustrator 24.0.3, SVG Export Plug-In . SVG Version: 6.00 Build 0)  -->
<svg version="1.1" id="Capa_1" xmlns="http://www.w3.org/2000/svg" xmlns:xlink="http://www.w3.org/1999/xlink" x="0px" y="0px"
	 viewBox="0 0 39.76 28.19" style="enable-background:new 0 0 39.76 28.19;" xml:space="preserve">
<style type="text/css">
	.st0{fill-rule:evenodd;clip-rule:evenodd;fill:#FFFFFF;stroke:#808080;stroke-width:0.25;stroke-miterlimit:10;}
	.st1{fill-rule:evenodd;clip-rule:evenodd;fill:#2F2C7C;}
	.st2{fill-rule:evenodd;clip-rule:evenodd;fill:#FFEA0F;}
</style>
<g>
	<rect x="0.12" y="0.12" class="st0" width="39.51" height="27.94"/>
	<g>
		<path class="st1" d="M12.29,2.12l15.37,0.01c2.41,0,4.4,1.99,4.39,4.41v15.37c0,2.42-1.99,4.4-4.41,4.4L12.27,26.3
			c-2.42-0.01-4.4-1.99-4.4-4.41L7.88,6.52C7.88,4.1,9.86,2.11,12.29,2.12L12.29,2.12z"/>
		<path class="st2" d="M28.65,13.15h-1.75l-0.72,1.37h1.23L28.65,13.15L28.65,13.15z M29.81,15.38H28.1v3.69
			c0,1.13-0.76,1.45-1.32,1.45c-0.53,0-1.12-0.2-1.11-1.18v-3.96h-1.71l-0.01,4.2c0,1.63,0.93,2.35,2.21,2.35
			c0.89,0.01,1.59-0.38,1.98-1.07h0.02v0.89h1.64V15.38L29.81,15.38z"/>
		<path class="st2" d="M22.63,17.07c0-1.58-1.66-1.86-2.58-1.86c-1.33,0-2.71,0.28-2.92,2.23h1.65c0.05-0.37,0.21-0.89,1.06-0.89
			c0.44,0,1.13,0.04,1.13,0.74c0,0.36-0.33,0.47-0.61,0.51l-1.54,0.23c-1.09,0.15-1.91,0.8-1.91,2.04c0,1.32,1.01,1.86,1.98,1.86
			c1.17,0,1.73-0.53,2.11-0.92c0.04,0.35,0.06,0.44,0.16,0.75l1.47-0.01c0-0.7-0.01-1.22-0.01-1.23V17.07L22.63,17.07z"/>
		<path class="st2" d="M15.35,13.15h-1.71v2.22h-0.89v1.2h0.88v3.88c0,0.82,0.26,1.38,1.74,1.38h0.23c0.27,0,0.54-0.02,0.8-0.03
			v-1.27c-0.12,0.01-0.24,0.03-0.35,0.03c-0.7,0-0.71-0.14-0.71-0.52l0.01-3.46h1.07v-1.2h-1.07V13.15L15.35,13.15z"/>
		<polygon class="st2" points="11.97,13.14 10.12,13.14 10.12,21.75 11.96,21.75 11.97,13.14 		"/>
		<path class="st1" d="M20.97,19.48v-0.82c-0.17,0.14-0.46,0.24-1.17,0.34c-0.64,0.11-1.17,0.27-1.17,0.97
			c0,0.58,0.47,0.77,0.8,0.77C20.19,20.73,20.97,20.25,20.97,19.48L20.97,19.48z"/>
	</g>
</g>
</svg>
